<svg width="11" height="11" viewBox="0 0 11 11" fill="none" xmlns="http://www.w3.org/2000/svg">
<path d="M9.7779 0H0.814941C0.814941 0 1.62976 2.03704 3.25939 2.03704H7.33346C8.14827 2.03704 9.7779 0 9.7779 0Z" fill="white"/>
<path d="M11 9.7779L11 0.814941C11 0.814941 8.96296 1.62976 8.96296 3.25939L8.96296 7.33346C8.96296 8.14827 11 9.7779 11 9.7779Z" fill="white"/>
<path d="M0.81487 11L9.77783 11C9.77783 11 8.96302 8.96296 7.33339 8.96296L3.25931 8.96296C2.4445 8.96296 0.81487 11 0.81487 11Z" fill="white"/>
<path d="M-3.91784e-07 1.01873L0 9.98169C0 9.98169 2.03704 9.16687 2.03704 7.53725L2.03704 3.46317C2.03704 2.64836 -3.91784e-07 1.01873 -3.91784e-07 1.01873Z" fill="white"/>
</svg>
